<svg width="100" height="100" viewBox="0 0 100 100" fill="none" xmlns="http://www.w3.org/2000/svg">
<g filter="url(#filter0_d)">
<rect x="20" y="10" width="60" height="60" rx="16" fill="white"/>
<path d="M56.2888 24.1544C57.2162 24.0412 58.183 24.3759 58.8601 25.0172C59.3987 25.5396 59.7707 26.2455 59.8438 26.9965C59.9598 27.9598 59.6082 28.9687 58.91 29.6444C58.2934 30.2646 57.4138 30.6141 56.5398 30.5747C55.4464 30.5571 54.3981 29.9194 53.8567 28.9723C53.4067 28.2291 53.3202 27.2974 53.5452 26.4663C53.8834 25.2366 55.0189 24.2782 56.2888 24.1544Z" fill="#5D748A"/>
<path d="M46.033 29.1578C46.3663 29.0776 46.6961 29.2 47.0202 29.2625C48.7619 29.6401 50.5021 30.0212 52.243 30.3995C52.4174 30.4325 52.5834 30.4993 52.7373 30.5872C53.3083 30.91 53.8778 31.2348 54.4544 31.547C54.9691 31.8163 55.3579 32.3113 55.5048 32.8724C55.6384 33.4054 55.5773 33.9889 55.3108 34.472C54.1928 36.6777 53.0755 38.8841 51.9604 41.0912C53.2323 42.2007 54.4937 43.3229 55.7523 44.4479C56.1524 44.7735 56.3739 45.3163 56.2741 45.8275C55.8297 48.1639 55.3867 50.5011 54.9416 52.8383C54.8769 53.1596 54.8411 53.4915 54.7138 53.7967C54.4663 54.3332 53.9551 54.7494 53.3659 54.8408C52.5201 55.0061 51.6159 54.4471 51.3662 53.6265C51.2263 53.2447 51.2734 52.8299 51.3634 52.4432C51.76 50.4491 52.1334 48.4501 52.5348 46.4575C50.7552 45.3507 48.9679 44.2567 47.1855 43.1549C46.514 42.8265 45.9824 42.2317 45.7314 41.5279C45.4635 40.7769 45.5198 39.9057 45.9128 39.2089C47.1482 37.1945 48.3899 35.1843 49.619 33.1656C48.5791 32.8225 47.5314 32.5039 46.4908 32.1629C45.0367 33.2057 43.5876 34.2547 42.1328 35.2968C41.7707 35.5745 41.2757 35.6434 40.844 35.5098C40.3209 35.3418 39.9088 34.8552 39.8638 34.3025C39.8041 33.8209 40.0073 33.3132 40.3954 33.0179C41.9985 31.8739 43.5974 30.7236 45.1977 29.5747C45.4473 29.3877 45.7173 29.2049 46.033 29.1578Z" fill="#5D748A"/>
<path d="M54.827 38.5446C55.3663 37.4878 55.9084 36.4324 56.4365 35.3707C56.8668 36.3825 57.2922 37.3957 57.7127 38.4117C58.9389 38.4139 60.1659 38.4124 61.3921 38.4124C61.7563 38.4153 62.1311 38.3829 62.482 38.5017C63.0599 38.7092 63.4839 39.3117 63.4291 39.9326C63.4213 40.6913 62.7091 41.322 61.9609 41.2988C60.4366 41.2988 58.9115 41.2974 57.3871 41.2995C57.0461 41.3037 56.6861 41.3114 56.376 41.1497C56.0667 41.0049 55.8269 40.7398 55.6842 40.4332C55.398 39.8039 55.1118 39.1746 54.827 38.5446Z" fill="#5D748A"/>
<path d="M42.8767 44.8552C43.4336 44.0072 43.9475 43.1304 44.522 42.2951C44.8792 43.1023 45.4923 43.7921 46.2531 44.2399C46.6208 44.4572 46.9759 44.6963 47.3478 44.9079C46.8282 45.687 46.2664 46.4372 45.7328 47.2057C45.2336 47.9173 44.4081 48.3933 43.5369 48.4306C41.4472 48.4313 39.3582 48.4299 37.2693 48.4313C36.46 48.4137 35.7217 47.764 35.593 46.9653C35.4411 46.2073 35.8503 45.3776 36.5486 45.045C36.7911 44.9206 37.0611 44.8439 37.3353 44.8538C39.1825 44.8566 41.0296 44.8524 42.8767 44.8552Z" fill="#5D748A"/>
</g>
<defs>
<filter id="filter0_d" x="0" y="0" width="100" height="100" filterUnits="userSpaceOnUse" color-interpolation-filters="sRGB">
<feFlood flood-opacity="0" result="BackgroundImageFix"/>
<feColorMatrix in="SourceAlpha" type="matrix" values="0 0 0 0 0 0 0 0 0 0 0 0 0 0 0 0 0 0 127 0"/>
<feOffset dy="10"/>
<feGaussianBlur stdDeviation="10"/>
<feColorMatrix type="matrix" values="0 0 0 0 0.4161 0 0 0 0 0.482057 0 0 0 0 0.57 0 0 0 0.05 0"/>
<feBlend mode="normal" in2="BackgroundImageFix" result="effect1_dropShadow"/>
<feBlend mode="normal" in="SourceGraphic" in2="effect1_dropShadow" result="shape"/>
</filter>
</defs>
</svg>
