<svg width="100" height="100" viewBox="0 0 100 100" fill="none" xmlns="http://www.w3.org/2000/svg">
<g filter="url(#filter0_d)">
<rect x="20" y="10" width="60" height="60" rx="16" fill="white"/>
<path d="M61.0405 45.2082C59.8578 44.2842 58.1412 44.2843 56.9586 45.2082C56.4119 45.6353 55.5874 45.6352 55.0408 45.2082C54.5101 44.7935 53.8718 44.5656 53.2225 44.5231V35.5053L64.9985 35.5154L65 33.7577L61.6596 33.7548V30.3923C61.6596 27.5816 59.3729 25.2949 56.5621 25.2949C53.7514 25.2949 51.4647 27.5816 51.4647 30.3923V33.732H48.5352V30.3923C48.5352 27.5816 46.2485 25.2949 43.4378 25.2949C40.6271 25.2949 38.3404 27.5816 38.3404 30.3923V33.732C38.3404 33.7379 38.4993 33.735 35.0015 33.732L35 35.4897L38.3404 35.4926V45.4918C37.8937 45.5866 37.4061 45.4928 37.0418 45.2082C36.4678 44.7597 35.7429 44.5127 35.0008 44.5127V46.2705C35.3527 46.2705 35.6931 46.3851 35.9596 46.5933C37.1423 47.5172 38.859 47.5172 40.0416 46.5933C40.5883 46.1662 41.4127 46.1662 41.9593 46.5933C43.142 47.5172 44.8587 47.5172 46.0413 46.5932C46.5879 46.1662 47.4124 46.1662 47.959 46.5932C49.1416 47.5172 50.8583 47.5172 52.0409 46.5932C52.5876 46.1661 53.4121 46.1662 53.9587 46.5932C55.1414 47.5172 56.858 47.5172 58.0406 46.5932C58.5873 46.1662 59.4117 46.1661 59.9584 46.5932C61.141 47.5172 62.8577 47.5171 64.0404 46.5932C64.3068 46.385 64.6473 46.2704 64.9992 46.2704V44.5127C64.2569 44.5127 63.5321 44.7596 62.9582 45.2081C62.4116 45.6353 61.5871 45.6352 61.0405 45.2082ZM40.0982 39.2396H51.4648V41.2316H40.0982V39.2396ZM53.2225 30.3923C53.2225 28.5508 54.7207 27.0526 56.5622 27.0526C58.4037 27.0526 59.9019 28.5508 59.9019 30.3923V33.732H53.2225V30.3923ZM40.0982 30.3923C40.0982 28.5508 41.5963 27.0526 43.4378 27.0526C45.2794 27.0526 46.7775 28.5508 46.7775 30.3923V33.732H40.0982V30.3923ZM51.4648 35.5039V37.4819H40.0982V35.4941L51.4648 35.5039ZM49.0411 45.2082C47.8584 44.2842 46.1418 44.2843 44.9592 45.2082C44.4124 45.6353 43.588 45.6352 43.0414 45.2082C42.202 44.5523 41.0937 44.3626 40.0982 44.6377V42.9894H51.4648V44.885C51.2883 44.9761 51.1186 45.0834 50.9589 45.2082C50.4122 45.6353 49.5878 45.6352 49.0411 45.2082Z" fill="#558EF7"/>
<path d="M61.0405 48.9578C59.8578 48.0339 58.1411 48.0339 56.9585 48.9578C56.4118 49.3849 55.5874 49.3849 55.0408 48.9578C53.8582 48.0338 52.1414 48.0339 50.9588 48.9578C50.4122 49.3849 49.5878 49.3849 49.0411 48.9577C47.8584 48.0338 46.1418 48.0339 44.9592 48.9577C44.4125 49.3849 43.588 49.3848 43.0414 48.9577C41.8588 48.0338 40.1421 48.0338 38.9595 48.9577C38.4128 49.3848 37.5883 49.3848 37.0418 48.9577C36.4678 48.5093 35.7429 48.2623 35.0008 48.2623V50.0201C35.3527 50.0201 35.6931 50.1347 35.9596 50.3429C37.1423 51.2668 38.859 51.2667 40.0416 50.3429C40.5883 49.9158 41.4127 49.9158 41.9593 50.3429C43.142 51.2668 44.8587 51.2668 46.0413 50.3428C46.5879 49.9158 47.4124 49.9158 47.959 50.3428C49.1416 51.2668 50.8583 51.2667 52.0409 50.3428C52.5877 49.9157 53.4121 49.9158 53.9587 50.3428C55.1414 51.2667 56.8581 51.2667 58.0407 50.3428C58.5873 49.9158 59.4117 49.9157 59.9584 50.3428C61.141 51.2667 62.8577 51.2667 64.0404 50.3428C64.3068 50.1346 64.6473 50.02 64.9992 50.02V48.2623C64.257 48.2623 63.5321 48.5092 62.9582 48.9577C62.4116 49.3849 61.5871 49.3849 61.0405 48.9578Z" fill="#558EF7"/>
<path d="M61.0405 52.6269C59.8578 51.7029 58.1411 51.703 56.9585 52.6269C56.4118 53.054 55.5874 53.0539 55.0408 52.6269C53.8582 51.7029 52.1414 51.7029 50.9588 52.6269C50.4122 53.054 49.5878 53.0539 49.0411 52.6268C47.8584 51.7029 46.1418 51.7029 44.9592 52.6268C44.4125 53.0539 43.588 53.0539 43.0414 52.6268C41.8588 51.7028 40.1421 51.7029 38.9595 52.6268C38.4129 53.0539 37.5884 53.0539 37.0418 52.6268C36.4678 52.1784 35.7429 51.9314 35.0008 51.9314V53.6891C35.3527 53.6891 35.6931 53.8038 35.9596 54.012C37.1423 54.9359 38.859 54.9358 40.0416 54.012C40.5883 53.5848 41.4127 53.5849 41.9593 54.012C43.142 54.9359 44.8587 54.9358 46.0413 54.0119C46.5879 53.5849 47.4124 53.5848 47.959 54.0119C49.1416 54.9359 50.8583 54.9358 52.0409 54.0119C52.5877 53.5848 53.4121 53.5848 53.9587 54.0119C55.1414 54.9358 56.8581 54.9358 58.0407 54.0118C58.5873 53.5848 59.4117 53.5848 59.9584 54.0118C61.141 54.9358 62.8577 54.9358 64.0404 54.0118C64.3068 53.8037 64.6473 53.6891 64.9992 53.6891V51.9313C64.257 51.9313 63.5321 52.1783 62.9582 52.6267C62.4116 53.054 61.5871 53.054 61.0405 52.6269Z" fill="#558EF7"/>
</g>
<defs>
<filter id="filter0_d" x="0" y="0" width="100" height="100" filterUnits="userSpaceOnUse" color-interpolation-filters="sRGB">
<feFlood flood-opacity="0" result="BackgroundImageFix"/>
<feColorMatrix in="SourceAlpha" type="matrix" values="0 0 0 0 0 0 0 0 0 0 0 0 0 0 0 0 0 0 127 0"/>
<feOffset dy="10"/>
<feGaussianBlur stdDeviation="10"/>
<feColorMatrix type="matrix" values="0 0 0 0 0.4161 0 0 0 0 0.482057 0 0 0 0 0.57 0 0 0 0.05 0"/>
<feBlend mode="normal" in2="BackgroundImageFix" result="effect1_dropShadow"/>
<feBlend mode="normal" in="SourceGraphic" in2="effect1_dropShadow" result="shape"/>
</filter>
</defs>
</svg>
