<svg width="100" height="100" viewBox="0 0 100 100" fill="none" xmlns="http://www.w3.org/2000/svg">
<g filter="url(#filter0_d)">
<rect x="20" y="10" width="60" height="60" rx="16" fill="white"/>
<g clip-path="url(#clip0)">
<path d="M65.0158 24.9854C60.2683 20.2379 52.1327 21.4615 47.1172 26.4769C39.6497 33.9443 45.4783 38.7126 38.8652 46.5645L43.4367 51.136C51.2888 44.5228 56.0567 50.3516 63.5243 42.8841C68.5738 37.8344 69.7345 29.7041 65.0158 24.9854ZM63.5243 26.4769C64.3096 27.2624 64.8863 28.1876 65.2829 29.193L61.2869 33.189L56.8122 28.7143L60.8082 24.7183C61.8136 25.1149 62.7388 25.6916 63.5243 26.4769ZM59.7953 34.6805L55.3208 39.1552L50.8461 34.6805L55.3208 30.206L59.7953 34.6805ZM58.4082 24.1353L55.3207 27.2228L53.0784 24.9806C54.8483 24.2574 56.6856 23.9648 58.4082 24.1353ZM48.6087 27.9686C49.385 27.1922 50.2282 26.5381 51.1062 25.9914L53.8291 28.7143L49.3546 33.189L46.6316 30.466C47.1782 29.588 47.8324 28.7449 48.6087 27.9686ZM45.6206 32.4382L47.8629 34.6805L44.7754 37.7681C44.6049 36.0453 44.8974 34.208 45.6206 32.4382ZM45.5002 47.2334L42.7679 44.501C43.2076 43.6623 43.5509 42.7954 43.848 41.9196C44.3105 42.8104 44.8926 43.6427 45.6257 44.3757C46.3586 45.1087 47.191 45.6908 48.0818 46.1534C47.2059 46.4503 46.3391 46.7937 45.5002 47.2334ZM47.1172 42.8841C46.3319 42.0987 45.755 41.1734 45.3584 40.1682L49.3546 36.172L53.8291 40.6467L49.8331 44.6428C48.8277 44.2462 47.9025 43.6694 47.1172 42.8841ZM52.2331 45.2258L55.3207 42.1383L57.563 44.3805C55.7932 45.1037 53.9559 45.3962 52.2331 45.2258ZM62.0327 41.3925C61.2563 42.1688 60.4133 42.823 59.5352 43.3697L56.8122 40.6467L61.2869 36.172L64.0098 38.895C63.4632 39.773 62.809 40.6162 62.0327 41.3925ZM62.7785 34.6805L65.8659 31.593C66.0365 33.3157 65.7439 35.153 65.0207 36.9228L62.7785 34.6805Z" fill="#5D748A"/>
<path d="M37.4221 48.1045L32.9254 52.6001C31.6916 53.8339 31.6916 55.841 32.9254 57.0748C34.1592 58.3084 36.1663 58.3084 37.4001 57.0748L41.8968 52.5792L37.4221 48.1045Z" fill="#5D748A"/>
</g>
</g>
<defs>
<filter id="filter0_d" x="0" y="0" width="100" height="100" filterUnits="userSpaceOnUse" color-interpolation-filters="sRGB">
<feFlood flood-opacity="0" result="BackgroundImageFix"/>
<feColorMatrix in="SourceAlpha" type="matrix" values="0 0 0 0 0 0 0 0 0 0 0 0 0 0 0 0 0 0 127 0"/>
<feOffset dy="10"/>
<feGaussianBlur stdDeviation="10"/>
<feColorMatrix type="matrix" values="0 0 0 0 0.4161 0 0 0 0 0.482057 0 0 0 0 0.57 0 0 0 0.05 0"/>
<feBlend mode="normal" in2="BackgroundImageFix" result="effect1_dropShadow"/>
<feBlend mode="normal" in="SourceGraphic" in2="effect1_dropShadow" result="shape"/>
</filter>
<clipPath id="clip0">
<rect width="36" height="36" fill="white" transform="translate(32 22)"/>
</clipPath>
</defs>
</svg>
