<svg width="100" height="100" viewBox="0 0 100 100" fill="none" xmlns="http://www.w3.org/2000/svg">
<g filter="url(#filter0_d)">
<rect x="20" y="10" width="60" height="60" rx="16" fill="white"/>
<path d="M58.0069 38.5834L51.3911 31.9676C50.8366 31.4131 50.8317 30.519 51.3888 29.9619C51.9421 29.4086 52.8362 29.4057 53.3879 29.9574L62.4123 38.9819C62.9631 39.5327 62.964 40.4248 62.4123 40.9765L53.3879 50.001C52.8371 50.5518 51.9459 50.5537 51.3888 49.9966C50.8356 49.4433 50.8384 48.5435 51.3934 47.9885L57.9652 41.4167H39.0778C38.2984 41.4167 37.6666 40.7879 37.6666 40.0001C37.6666 39.2177 38.2976 38.5834 39.0807 38.5834H58.0069Z" fill="#5D748A"/>
</g>
<defs>
<filter id="filter0_d" x="0" y="0" width="100" height="100" filterUnits="userSpaceOnUse" color-interpolation-filters="sRGB">
<feFlood flood-opacity="0" result="BackgroundImageFix"/>
<feColorMatrix in="SourceAlpha" type="matrix" values="0 0 0 0 0 0 0 0 0 0 0 0 0 0 0 0 0 0 127 0"/>
<feOffset dy="10"/>
<feGaussianBlur stdDeviation="10"/>
<feColorMatrix type="matrix" values="0 0 0 0 0.4161 0 0 0 0 0.482057 0 0 0 0 0.57 0 0 0 0.05 0"/>
<feBlend mode="normal" in2="BackgroundImageFix" result="effect1_dropShadow"/>
<feBlend mode="normal" in="SourceGraphic" in2="effect1_dropShadow" result="shape"/>
</filter>
</defs>
</svg>
