<svg width="100" height="100" viewBox="0 0 100 100" fill="none" xmlns="http://www.w3.org/2000/svg">
<g filter="url(#filter0_d)">
<rect x="20" y="10" width="60" height="60" rx="16" fill="#558EF7"/>
<path d="M38.4027 23.7912C38.7181 23.7955 39.0335 23.8023 39.348 23.7852C39.3729 24.9548 39.3446 26.1252 39.3626 27.2948C40.2718 27.4676 41.0796 28.107 41.4225 28.9715C41.9519 30.1952 41.4174 31.7284 40.2658 32.3858C40.882 33.9756 41.609 35.5328 42.5535 36.9559C43.1413 37.8102 43.8133 38.6412 44.6976 39.2032C45.3834 39.6552 46.2557 39.8615 47.0592 39.6372C47.9753 39.3871 48.7229 38.7434 49.3382 38.043C50.7528 36.3991 51.6474 34.3933 52.4604 32.403C51.955 32.067 51.5193 31.6098 51.2968 31.0374C50.9719 30.233 51.0484 29.2697 51.5245 28.5401C51.9301 27.8895 52.6185 27.4375 53.3687 27.2914C53.3661 26.1261 53.367 24.9608 53.3678 23.7955C53.6884 23.7955 54.0089 23.7937 54.3295 23.7972C54.3295 24.9608 54.3372 26.1235 54.3252 27.2862C55.1064 27.4487 55.83 27.9239 56.2253 28.6252C56.8217 29.6117 56.6911 30.9678 55.9159 31.822C55.4432 32.3626 54.7549 32.7115 54.0356 32.7527C53.8594 32.7201 53.8689 32.9212 53.8285 33.0303C53.3739 34.7499 52.7637 36.4309 51.9868 38.0319C51.5606 38.9291 51.1146 39.8177 50.7459 40.7406C49.6287 43.4855 49.3021 46.4812 49.3185 49.4246C54.0029 50.2496 58.6822 51.1038 63.365 51.9391C63.1493 52.6541 62.9207 53.3657 62.6929 54.0781L62.6534 54.1108C58.7845 54.3866 54.9139 54.6668 51.0364 54.7802C49.4396 54.8241 47.7853 54.8052 46.2823 54.2002C45.1075 53.7507 44.1321 52.7848 43.7523 51.5773C43.3123 50.3424 43.479 49.0173 43.3931 47.7351C43.3123 45.9665 43.0863 44.1962 42.5939 42.4929C42.1736 40.9907 41.5033 39.577 40.8218 38.1797C39.9779 36.448 39.3205 34.6287 38.8324 32.7665C37.955 32.7433 37.0999 32.2964 36.6066 31.5668C36.0102 30.7169 35.9664 29.5292 36.4906 28.6346C36.885 27.9316 37.6069 27.4444 38.395 27.2948C38.3975 26.127 38.3821 24.9591 38.4027 23.7912ZM37.1119 29.8506C36.9907 30.7745 37.7289 31.7034 38.6579 31.7851C39.0524 31.5883 39.3936 31.2978 39.7674 31.0641C39.8172 31.2016 39.8679 31.3382 39.9186 31.4757C40.595 30.9798 40.8545 30.0045 40.4678 29.2516C40.13 28.5298 39.2612 28.107 38.4852 28.3029C37.759 28.4576 37.1798 29.1107 37.1119 29.8506ZM52.8909 28.5384C52.3899 28.8555 52.0668 29.4355 52.0796 30.0302C52.0659 30.5914 52.3555 31.1414 52.8118 31.4628C52.8514 31.3287 52.8926 31.1955 52.9356 31.0623C53.3361 31.2884 53.6893 31.6175 54.1181 31.7808C54.9311 31.6751 55.5996 30.9326 55.6203 30.1127C55.6624 29.4364 55.2705 28.7678 54.6707 28.4584C54.1207 28.1662 53.4117 28.1955 52.8909 28.5384Z" fill="white"/>
<path d="M45.7452 33.6226C46.7911 33.3269 47.9882 33.8469 48.4841 34.8145C48.8777 35.533 48.8587 36.4559 48.4445 37.1623C48.0733 37.8008 47.397 38.2572 46.6596 38.3371C45.9025 38.4402 45.1145 38.1463 44.5963 37.5886C43.944 36.8985 43.7678 35.814 44.1709 34.9537C44.4613 34.304 45.056 33.8022 45.7452 33.6226Z" fill="white"/>
</g>
<defs>
<filter id="filter0_d" x="0" y="0" width="100" height="100" filterUnits="userSpaceOnUse" color-interpolation-filters="sRGB">
<feFlood flood-opacity="0" result="BackgroundImageFix"/>
<feColorMatrix in="SourceAlpha" type="matrix" values="0 0 0 0 0 0 0 0 0 0 0 0 0 0 0 0 0 0 127 0"/>
<feOffset dy="10"/>
<feGaussianBlur stdDeviation="10"/>
<feColorMatrix type="matrix" values="0 0 0 0 0.4161 0 0 0 0 0.482057 0 0 0 0 0.57 0 0 0 0.05 0"/>
<feBlend mode="normal" in2="BackgroundImageFix" result="effect1_dropShadow"/>
<feBlend mode="normal" in="SourceGraphic" in2="effect1_dropShadow" result="shape"/>
</filter>
</defs>
</svg>
