<svg width="32" height="24" viewBox="0 0 32 24" fill="none" xmlns="http://www.w3.org/2000/svg">
<path d="M10.6875 2.4375H4.3125V1.375C4.3125 0.788168 4.78817 0.3125 5.375 0.3125H9.625C10.2118 0.3125 10.6875 0.788168 10.6875 1.375V2.4375Z" fill="#463C4B"/>
<path d="M27.6875 2.4375H21.3125V1.375C21.3125 0.788168 21.7882 0.3125 22.375 0.3125H26.625C27.2118 0.3125 27.6875 0.788168 27.6875 1.375V2.4375Z" fill="#463C4B"/>
<path d="M0.0625 8.8125V18.4284C0.0625 21.3329 2.41707 23.6875 5.32161 23.6875C6.71641 23.6875 8.05409 23.1334 9.04036 22.1471L12.6813 18.5062C14.1259 17.0616 14.9375 15.1022 14.9375 13.0592V8.8125H0.0625Z" fill="#463C4B"/>
<path d="M31.9375 8.8125V18.4284C31.9375 21.3329 29.5829 23.6875 26.6784 23.6875C25.2836 23.6875 23.9459 23.1334 22.9596 22.1471L19.3187 18.5062C17.8741 17.0616 17.0625 15.1022 17.0625 13.0592V8.8125H31.9375Z" fill="#463C4B"/>
<path d="M24.5 1.375C22.7628 1.375 21.1649 1.97066 19.899 2.96875H12.101C10.8351 1.97066 9.23719 1.375 7.5 1.375C3.39237 1.375 0.0625 4.70487 0.0625 8.8125C0.0625 12.9201 3.39237 16.25 7.5 16.25C8.31427 16.25 9.0978 16.1187 9.83106 15.8769C10.3363 17.3309 11.7177 18.375 13.3438 18.375C14.3846 18.375 15.325 17.9469 16 17.2578C16.675 17.9469 17.6154 18.375 18.6562 18.375C20.2823 18.375 21.6637 17.3309 22.1689 15.8769C22.9022 16.1187 23.6857 16.25 24.5 16.25C28.6076 16.25 31.9375 12.9201 31.9375 8.8125C31.9375 4.70487 28.6076 1.375 24.5 1.375Z" fill="#555A6E"/>
<path d="M17.7709 6.6875H14.2292C13.349 6.6875 12.6355 5.97396 12.6355 5.09375V2.96875H19.3646V5.09375C19.3646 5.97396 18.6511 6.6875 17.7709 6.6875Z" fill="#463C4B"/>
<path d="M27.9531 10.6719C28.98 10.6719 29.8125 9.8394 29.8125 8.8125C29.8125 7.7856 28.98 6.95312 27.9531 6.95312C26.9262 6.95312 26.0938 7.7856 26.0938 8.8125C26.0938 9.8394 26.9262 10.6719 27.9531 10.6719Z" fill="#FF6E91"/>
<path d="M21.0469 10.6719C22.0738 10.6719 22.9062 9.8394 22.9062 8.8125C22.9062 7.7856 22.0738 6.95312 21.0469 6.95312C20.02 6.95312 19.1875 7.7856 19.1875 8.8125C19.1875 9.8394 20.02 10.6719 21.0469 10.6719Z" fill="#FF6E91"/>
<path d="M24.5 7.21875C25.5269 7.21875 26.3594 6.38628 26.3594 5.35938C26.3594 4.33247 25.5269 3.5 24.5 3.5C23.4731 3.5 22.6406 4.33247 22.6406 5.35938C22.6406 6.38628 23.4731 7.21875 24.5 7.21875Z" fill="#00D2D2"/>
<path d="M24.5 14.125C25.5269 14.125 26.3594 13.2925 26.3594 12.2656C26.3594 11.2387 25.5269 10.4062 24.5 10.4062C23.4731 10.4062 22.6406 11.2387 22.6406 12.2656C22.6406 13.2925 23.4731 14.125 24.5 14.125Z" fill="#00D2D2"/>
<path d="M18.6562 16.6042C19.732 16.6042 20.6041 15.7321 20.6041 14.6563C20.6041 13.5805 19.732 12.7084 18.6562 12.7084C17.5804 12.7084 16.7083 13.5805 16.7083 14.6563C16.7083 15.7321 17.5804 16.6042 18.6562 16.6042Z" fill="#463C4B"/>
<path d="M13.3437 16.6042C14.4195 16.6042 15.2916 15.7321 15.2916 14.6563C15.2916 13.5805 14.4195 12.7084 13.3437 12.7084C12.2679 12.7084 11.3958 13.5805 11.3958 14.6563C11.3958 15.7321 12.2679 16.6042 13.3437 16.6042Z" fill="#463C4B"/>
<path d="M8.90821 6.84654L8.00336 7.6221C7.90707 7.70464 7.78442 7.75 7.65765 7.75H7.34235C7.21552 7.75 7.09293 7.70464 6.99664 7.6221L6.09179 6.84654C5.97405 6.74561 5.90625 6.59825 5.90625 6.44319V4.03125C5.90625 3.73787 6.14412 3.5 6.4375 3.5H8.5625C8.85588 3.5 9.09375 3.73787 9.09375 4.03125V6.44319C9.09375 6.59825 9.02595 6.74561 8.90821 6.84654Z" fill="#463C4B"/>
<path d="M8.90821 10.7785L8.00336 10.0029C7.90707 9.92036 7.78442 9.875 7.65765 9.875H7.34235C7.21552 9.875 7.09293 9.92036 6.99664 10.0029L6.09179 10.7785C5.97405 10.8794 5.90625 11.0268 5.90625 11.1818V13.5938C5.90625 13.8871 6.14412 14.125 6.4375 14.125H8.5625C8.85588 14.125 9.09375 13.8871 9.09375 13.5938V11.1818C9.09375 11.0268 9.02595 10.8794 8.90821 10.7785Z" fill="#463C4B"/>
<path d="M5.53404 7.40429L6.3096 8.30914C6.39214 8.40543 6.4375 8.52808 6.4375 8.65485V8.97015C6.4375 9.09698 6.39214 9.21957 6.3096 9.31586L5.53404 10.2207C5.43311 10.3384 5.28575 10.4062 5.13069 10.4062H2.71875C2.42537 10.4062 2.1875 10.1684 2.1875 9.875V7.75C2.1875 7.45662 2.42537 7.21875 2.71875 7.21875H5.13069C5.28575 7.21875 5.43311 7.28655 5.53404 7.40429Z" fill="#463C4B"/>
<path d="M9.46596 7.40429L8.6904 8.30914C8.60786 8.40543 8.5625 8.52808 8.5625 8.65485V8.97015C8.5625 9.09698 8.60786 9.21957 8.6904 9.31586L9.46596 10.2207C9.56689 10.3384 9.71425 10.4062 9.86931 10.4062H12.2812C12.5746 10.4062 12.8125 10.1684 12.8125 9.875V7.75C12.8125 7.45662 12.5746 7.21875 12.2812 7.21875H9.86931C9.71425 7.21875 9.56689 7.28655 9.46596 7.40429Z" fill="#463C4B"/>
</svg>
