<svg width="88" height="88" viewBox="0 0 88 88" fill="none" xmlns="http://www.w3.org/2000/svg">
<g filter="url(#filter0_d)">
<rect x="20" y="10" width="48" height="48" rx="24" fill="white"/>
<path fill-rule="evenodd" clip-rule="evenodd" d="M50.384 43.7791C50.706 44.0071 51.121 44.0641 51.491 43.9241C51.861 43.7831 52.133 43.4671 52.215 43.0841C53.084 39.0001 55.192 28.6631 55.983 24.9481C56.043 24.6681 55.943 24.3771 55.723 24.1901C55.503 24.0031 55.198 23.9491 54.926 24.0501C50.733 25.6021 37.82 30.4471 32.542 32.4001C32.207 32.5241 31.989 32.8461 32 33.1991C32.012 33.5531 32.25 33.8601 32.593 33.9631C34.96 34.6711 38.067 35.6561 38.067 35.6561C38.067 35.6561 39.519 40.0411 40.276 42.2711C40.371 42.5511 40.59 42.7711 40.879 42.8471C41.167 42.9221 41.475 42.8431 41.69 42.6401C42.906 41.4921 44.786 39.7171 44.786 39.7171C44.786 39.7171 48.358 42.3361 50.384 43.7791ZM39.374 35.1021L41.053 40.6401L41.426 37.1331C41.426 37.1331 47.913 31.2821 51.611 27.9471C51.719 27.8491 51.734 27.6851 51.644 27.5701C51.555 27.4551 51.391 27.4281 51.268 27.5061C46.982 30.2431 39.374 35.1021 39.374 35.1021Z" fill="#5D748A"/>
</g>
<defs>
<filter id="filter0_d" x="0" y="0" width="88" height="88" filterUnits="userSpaceOnUse" color-interpolation-filters="sRGB">
<feFlood flood-opacity="0" result="BackgroundImageFix"/>
<feColorMatrix in="SourceAlpha" type="matrix" values="0 0 0 0 0 0 0 0 0 0 0 0 0 0 0 0 0 0 127 0"/>
<feOffset dy="10"/>
<feGaussianBlur stdDeviation="10"/>
<feColorMatrix type="matrix" values="0 0 0 0 0.4161 0 0 0 0 0.482057 0 0 0 0 0.57 0 0 0 0.05 0"/>
<feBlend mode="normal" in2="BackgroundImageFix" result="effect1_dropShadow"/>
<feBlend mode="normal" in="SourceGraphic" in2="effect1_dropShadow" result="shape"/>
</filter>
</defs>
</svg>
