<svg width="100" height="100" viewBox="0 0 100 100" fill="none" xmlns="http://www.w3.org/2000/svg">
<g filter="url(#filter0_d)">
<rect x="20" y="10" width="60" height="60" rx="16" fill="white"/>
<path d="M50 25C41.7158 25 35 31.7158 35 40C35 48.2842 41.7158 55 50 55C58.2842 55 65 48.2842 65 40C64.9907 31.7197 58.2803 25.0093 50 25ZM50.5354 29.3245L55.75 27.24C56.3418 27.5078 56.9143 27.8164 57.4634 28.1636L57.4771 28.1721C58.0166 28.5139 58.5322 28.8921 59.0205 29.304L59.0625 29.3406C59.2815 29.5271 59.4944 29.7202 59.7014 29.9194C59.7275 29.9451 59.7549 29.9695 59.781 29.9956C59.998 30.2075 60.2083 30.426 60.4116 30.6509C60.4285 30.6699 60.4446 30.6899 60.4614 30.709C60.6399 30.9089 60.8115 31.116 60.978 31.3264C61.0181 31.3765 61.0581 31.4265 61.0969 31.4766C61.2776 31.7104 61.4524 31.9485 61.6174 32.1941L60.5779 36.613L55.4634 38.3181L50.5366 34.376L50.5354 29.3245ZM38.9026 31.4795C38.9414 31.4294 38.981 31.3794 39.021 31.3296C39.1855 31.1208 39.3557 30.9172 39.5315 30.7185C39.5505 30.6975 39.5681 30.676 39.5869 30.655C39.7891 30.4297 39.9983 30.2114 40.2151 30C40.24 29.9756 40.2649 29.95 40.291 29.9275C40.4963 29.7295 40.7075 29.5376 40.9246 29.3521L40.9746 29.3101C41.4585 28.9011 41.9692 28.5254 42.5034 28.1851L42.5229 28.1726C43.0688 27.8262 43.6377 27.5181 44.2261 27.25L49.4646 29.3245V34.3745L44.5376 38.3159L39.4231 36.614L38.3835 32.1951C38.55 31.95 38.7229 31.7124 38.9026 31.4795ZM38.3 47.6726C38.1531 47.4485 38.0125 47.2202 37.8784 46.9875L37.8459 46.9314C37.7126 46.7 37.5864 46.4646 37.4675 46.2256L37.4634 46.218C37.2129 45.7151 36.9929 45.1975 36.8049 44.668V44.6631C36.7161 44.4131 36.635 44.157 36.5601 43.8994L36.533 43.8044C36.4644 43.5625 36.4021 43.3179 36.3464 43.0706C36.3416 43.0464 36.3354 43.0234 36.3306 42.9995C36.2078 42.4409 36.1196 41.8755 36.0664 41.3059L39.1189 37.6431L44.198 39.3359L45.6721 45.2319L43.25 48.4546L38.3 47.6726ZM53.3296 53.5964C53.0796 53.6584 52.823 53.7119 52.5664 53.76C52.5305 53.7671 52.4939 53.7729 52.458 53.7795C52.2395 53.8186 52.0186 53.8521 51.7971 53.8794C51.738 53.887 51.6794 53.895 51.6206 53.9021C51.415 53.926 51.2075 53.9441 50.9995 53.959C50.9341 53.9634 50.8694 53.97 50.804 53.9741C50.5381 53.9905 50.27 54 50 54C49.7527 54 49.5068 53.9934 49.2625 53.9805C49.2329 53.9805 49.2046 53.9756 49.175 53.9734C48.9575 53.9609 48.741 53.9446 48.5249 53.9236L48.5 53.9189C48.0266 53.8677 47.5559 53.7925 47.0901 53.6941L44.1326 49.0635L46.5166 45.8845H53.4834L55.9065 49.0845L53.3296 53.5964ZM63.6731 43C63.668 43.0239 63.6621 43.0471 63.657 43.071C63.6011 43.3181 63.5388 43.5627 63.4705 43.8049L63.4436 43.8999C63.3684 44.1575 63.2876 44.4126 63.1985 44.6636V44.6685C63.0105 45.198 62.7908 45.7156 62.54 46.2185L62.5359 46.2261C62.4163 46.4653 62.2903 46.7007 62.1575 46.9319L62.125 46.988C61.9917 47.2214 61.8513 47.4492 61.7041 47.6721L56.771 48.45L54.332 45.23L55.8054 39.3354L60.8845 37.6426L63.937 41.3054C63.884 41.8752 63.7959 42.4412 63.6731 43Z" fill="#5D748A"/>
</g>
<defs>
<filter id="filter0_d" x="0" y="0" width="100" height="100" filterUnits="userSpaceOnUse" color-interpolation-filters="sRGB">
<feFlood flood-opacity="0" result="BackgroundImageFix"/>
<feColorMatrix in="SourceAlpha" type="matrix" values="0 0 0 0 0 0 0 0 0 0 0 0 0 0 0 0 0 0 127 0"/>
<feOffset dy="10"/>
<feGaussianBlur stdDeviation="10"/>
<feColorMatrix type="matrix" values="0 0 0 0 0.4161 0 0 0 0 0.482057 0 0 0 0 0.57 0 0 0 0.05 0"/>
<feBlend mode="normal" in2="BackgroundImageFix" result="effect1_dropShadow"/>
<feBlend mode="normal" in="SourceGraphic" in2="effect1_dropShadow" result="shape"/>
</filter>
</defs>
</svg>
